<svg width="35" height="35" viewBox="0 0 35 35" fill="none" xmlns="http://www.w3.org/2000/svg">
<path fill-rule="evenodd" clip-rule="evenodd" d="M19.8333 2.167C19.8333 0.96988 18.9 0 17.7333 0C16.3333 0 15.4 0.96988 15.4 2.167V15.1784H2.1C0.933333 15.1784 0 16.1483 0 17.3454C0 18.5448 0.933333 19.5147 2.1 19.5147H15.4V32.833C15.4 34.0301 16.3333 35 17.7333 35C18.9 35 19.8333 34.0301 19.8333 32.833V19.5147H32.6667C33.8333 19.5147 35 18.5448 35 17.3454C35 16.1483 33.8333 15.1784 32.6667 15.1784H19.8333V2.167Z" fill="#349D89"/>
</svg>
