<svg width="24" height="24" viewBox="0 0 24 24" fill="none" xmlns="http://www.w3.org/2000/svg">
<path fill-rule="evenodd" clip-rule="evenodd" d="M0.0400759 20.1429H0V4.28571C0 1.91914 1.79365 0 4.00368 0H10.0652L12.4674 4.28571H18.4169C20.627 4.28571 22.4206 6.20486 22.4206 8.57143V12.0172C23.6137 12.9943 24.2703 14.6683 23.8939 16.392L22.9731 20.6777C22.5567 22.6226 20.9392 24 19.0735 24H4.02773C1.90578 24 0.24026 22.2583 0.0400759 20.1429ZM18.4169 6C19.7462 6 20.8191 7.15114 20.8191 8.57143V11.2328C20.5549 11.1737 20.2826 11.1429 19.9944 11.1429H4.94859C3.57133 11.1429 2.32213 11.898 1.60147 13.0791V4.28571C1.60147 2.86543 2.67446 1.71429 4.00368 1.71429H9.15246L11.5547 6H18.4169ZM19.9944 12.8571C21.5398 12.8571 22.6849 14.3957 22.3325 16.0071L21.4117 20.2928C21.1634 21.4594 20.1865 22.2857 19.0735 22.2857H4.02773C2.48231 22.2857 1.33722 20.7472 1.68954 19.1357L2.61041 14.85C2.85864 13.6834 3.83557 12.8571 4.94859 12.8571H19.9944Z" fill="black"/>
</svg>
